<?xml version="1.0" encoding="utf-8"?><svg xmlns="http://www.w3.org/2000/svg" xmlns:xlink="http://www.w3.org/1999/xlink" width="1280" height="652" preserveAspectRatio="xMidYMid" viewBox="0 0 1280 652" style="z-index:1;margin-right:-1.33333px;display:block;background-color:rgb(255, 255, 255);animation-play-state:paused" ><g transform="translate(640,326) scale(1,1) translate(-640,-326)" style="transform:matrix(1, 0, 0, 1, 0, 0);animation-play-state:paused" ><path id="path0" d="M 109.58038770181543 491.43743956484275
c 0 21.867107706488365 -5.3504625239280035 6.2809777454807 -11.631440269408703 6.2809777454807
S 86.31750716299803 513.3045472713311 86.31750716299803 491.43743956484275
s 5.3504625239280035 -6.2809777454807 11.631440269408703 -6.2809777454807
S 109.58038770181543 469.5703318583544 109.58038770181543 491.43743956484275
z" fill="none" stroke="none" style="animation-play-state:paused" ></path>


<circle cx="0" cy="0" r="5.570000706708074" fill="#de9dd6" opacity="0.9" transform="translate(103.96977996826172 481.7398376464844)" style="opacity:0.9;animation-play-state:paused" ></circle>
<path id="path1" d="M 1186.6212833926681 261.0028322152768
c 0 25.248322296547926 -6.1777809874532155 7.2521776809233405 -13.429958668376557 7.2521776809233405
S 1159.7613660559152 286.2511545118247 1159.7613660559152 261.0028322152768
s 6.1777809874532155 -7.2521776809233405 13.429958668376557 -7.2521776809233405
S 1186.6212833926681 235.75450991872884 1186.6212833926681 261.0028322152768
z" fill="none" stroke="none" style="animation-play-state:paused" ></path>


<circle cx="0" cy="0" r="6.634274098784746" fill="#51cacc" opacity="0.9" transform="translate(1159.7637939453125 260.197998046875)" style="opacity:0.9;animation-play-state:paused" ></circle>
<path id="path2" d="M 905.7881662548884 250.77058873064286
c 0 20.337568329472884 -4.976213527424216 5.841641966976254 -10.81785549440047 5.841641966976254
S 884.1524552660876 271.10815706011573 884.1524552660876 250.77058873064286
s 4.976213527424216 -5.841641966976254 10.81785549440047 -5.841641966976254
S 905.7881662548884 230.43302040116998 905.7881662548884 250.77058873064286
z" fill="none" stroke="none" style="animation-play-state:paused" ></path>


<circle cx="0" cy="0" r="5.345565335187962" fill="#de9dd6" opacity="0.9" transform="translate(889.330810546875 259.8243408203125)" style="opacity:0.9;animation-play-state:paused" ></circle>
<path id="path3" d="M 190.78234958635824 110.95094621388489
c 0 29.426910592099333 -7.200201527854091 8.452410489220021 -15.652612017074112 8.452410489220021
S 159.47712555221 140.3778568059842 159.47712555221 110.95094621388489
s 7.200201527854091 -8.452410489220021 15.652612017074112 -8.452410489220021
S 190.78234958635824 81.52403562178556 190.78234958635824 110.95094621388489
z" fill="none" stroke="none" style="animation-play-state:paused" ></path>


<circle cx="0" cy="0" r="6.598460732283069" fill="#de9dd6" opacity="0.9" transform="translate(168.20948791503906 98.92378234863281)" style="opacity:0.9;animation-play-state:paused" ></circle>
<path id="path4" d="M 157.39998266975695 233.6532458994571
c 0 34.01682117920569 -8.323264756614158 9.770789062112273 -18.094053818726433 9.770789062112273
S 121.21187503230409 267.6700670786628 121.21187503230409 233.6532458994571
s 8.323264756614158 -9.770789062112273 18.094053818726433 -9.770789062112273
S 157.39998266975695 199.6364247202514 157.39998266975695 233.6532458994571
z" fill="none" stroke="none" style="animation-play-state:paused" ></path>


<circle cx="0" cy="0" r="4.651377271666922" fill="#9df871" opacity="0.9" transform="translate(155.051513671875 216.17320251464844)" style="opacity:0.9;animation-play-state:paused" ></circle>
<path id="path5" d="M 116.87597398673911 170.26097358626214
c 0 36.772866048483664 -8.997616160799193 10.562418971372969 -19.56003513217216 10.562418971372969
S 77.75590372239479 207.0338396347458 77.75590372239479 170.26097358626214
s 8.997616160799193 -10.562418971372969 19.56003513217216 -10.562418971372969
S 116.87597398673911 133.4881075377785 116.87597398673911 170.26097358626214
z" fill="none" stroke="none" style="animation-play-state:paused" ></path>


<circle cx="0" cy="0" r="4.359443429320187" fill="#de9dd6" opacity="0.9" transform="translate(77.77184295654297 167.68865966796875)" style="opacity:0.9;animation-play-state:paused" ></circle>
<path id="path6" d="M 995.7797480741197 406.7312417168649
c 0 31.963816559425293 -7.820933839008315 9.181096245792371 -17.002030084800687 9.181096245792371
S 961.7756879045182 438.6950582762902 961.7756879045182 406.7312417168649
s 7.820933839008315 -9.181096245792371 17.002030084800687 -9.181096245792371
S 995.7797480741197 374.76742515743956 995.7797480741197 406.7312417168649
z" fill="none" stroke="none" style="animation-play-state:paused" ></path>


<circle cx="0" cy="0" r="5.724419747268652" fill="#51cacc" opacity="0.9" transform="translate(993.0479125976562 423.579833984375)" style="opacity:0.9;animation-play-state:paused" ></circle>
<path id="path7" d="M 426.9509844985941 122.77819371078462
c 0 31.959360781113904 -7.819843595378933 9.17981639457527 -16.999659989954203 9.17981639457527
S 392.95166451868573 154.73755449189852 392.95166451868573 122.77819371078462
s 7.819843595378933 -9.17981639457527 16.999659989954203 -9.17981639457527
S 426.9509844985941 90.81883292967072 426.9509844985941 122.77819371078462
z" fill="none" stroke="none" style="animation-play-state:paused" ></path>


<circle cx="0" cy="0" r="6.439001567547115" fill="#51cacc" opacity="0.9" transform="translate(418.69451904296875 108.65370178222656)" style="opacity:0.9;animation-play-state:paused" ></circle>
<path id="path8" d="M 852.0414816295538 202.28634236718446
c 0 34.2606688170102 -8.382929604162069 9.840830404885908 -18.223760009047975 9.840830404885908
S 815.5939616114579 236.54701118419467 815.5939616114579 202.28634236718446
s 8.382929604162069 -9.840830404885908 18.223760009047975 -9.840830404885908
S 852.0414816295538 168.02567355017425 852.0414816295538 202.28634236718446
z" fill="none" stroke="none" style="animation-play-state:paused" ></path>


<circle cx="0" cy="0" r="5.894540687185877" fill="#e0ff77" opacity="0.9" transform="translate(824.81396484375 217.10736083984375)" style="opacity:0.9;animation-play-state:paused" ></circle>
<path id="path9" d="M 686.756146018971 463.79169363861337
c 0 19.40932082574252 -4.749089138213595 5.575017683989873 -10.324106822203467 5.575017683989873
S 666.107932374564 483.20101446435586 666.107932374564 463.79169363861337
s 4.749089138213595 -5.575017683989873 10.324106822203467 -5.575017683989873
S 686.756146018971 444.38237281287087 686.756146018971 463.79169363861337
z" fill="none" stroke="none" style="animation-play-state:paused" ></path>


<circle cx="0" cy="0" r="7.328036965492511" fill="#de9dd6" opacity="0.9" transform="translate(682.8123779296875 473.26531982421875)" style="opacity:0.9;animation-play-state:paused" ></circle>
<path id="path10" d="M 371.0936206304589 40.20106241563783
c 0 34.52934409041902 -8.448669298719548 9.918003089801209 -18.366672388520755 9.918003089801209
S 334.3602758534173 74.73040650605685 334.3602758534173 40.20106241563783
s 8.448669298719548 -9.918003089801209 18.366672388520755 -9.918003089801209
S 371.0936206304589 5.671718325218805 371.0936206304589 40.20106241563783
z" fill="none" stroke="none" style="animation-play-state:paused" ></path>


<circle cx="0" cy="0" r="6.734515677057978" fill="#51cacc" opacity="0.9" transform="translate(352.5312194824219 30.279817581176758)" style="opacity:0.9;animation-play-state:paused" ></circle>
<path id="path11" d="M 1207.316945404148 321.60670883853845
c 0 19.890189012508536 -4.866748375401024 5.713139397209899 -10.579887772610924 5.713139397209899
S 1186.1571698589264 341.496897851047 1186.1571698589264 321.60670883853845
s 4.866748375401024 -5.713139397209899 10.579887772610924 -5.713139397209899
S 1207.316945404148 301.7165198260299 1207.316945404148 321.60670883853845
z" fill="none" stroke="none" style="animation-play-state:paused" ></path>


<circle cx="0" cy="0" r="6.173473974599911" fill="#de9dd6" opacity="0.9" transform="translate(1196.67529296875 315.89300537109375)" style="opacity:0.9;animation-play-state:paused" ></circle>
<path id="path12" d="M 1029.733659107236 58.0905092567014
c 0 28.985895507353703 -7.092293581586544 8.325735943601595 -15.418029525188139 8.325735943601595
S 998.8976000568598 87.0764047640551 998.8976000568598 58.0905092567014
s 7.092293581586544 -8.325735943601595 15.418029525188139 -8.325735943601595
S 1029.733659107236 29.1046137493477 1029.733659107236 58.0905092567014
z" fill="none" stroke="none" style="animation-play-state:paused" ></path>


<circle cx="0" cy="0" r="7.602395668058447" fill="#de9dd6" opacity="0.9" transform="translate(1008.9961547851562 47.46308135986328)" style="opacity:0.9;animation-play-state:paused" ></circle>
<path id="path13" d="M 262.6630908913182 586.0002281586213
c 0 28.81779319056192 -7.0511621636481285 8.277451235586934 -15.328613399235063 8.277451235586934
S 232.00586409284807 614.8180213491833 232.00586409284807 586.0002281586213
s 7.0511621636481285 -8.277451235586934 15.328613399235063 -8.277451235586934
S 262.6630908913182 557.1824349680594 262.6630908913182 586.0002281586213
z" fill="none" stroke="none" style="animation-play-state:paused" ></path>


<circle cx="0" cy="0" r="5.517539631963359" fill="#9df871" opacity="0.9" transform="translate(238.95327758789062 599.1657104492188)" style="opacity:0.9;animation-play-state:paused" ></circle>
<path id="path14" d="M 126.50290344235603 55.109583769249674
c 0 29.22217673419344 -7.150107073260096 8.393603955566201 -15.543711028826298 8.393603955566201
S 95.41548138470344 84.33176050344312 95.41548138470344 55.109583769249674
s 7.150107073260096 -8.393603955566201 15.543711028826298 -8.393603955566201
S 126.50290344235603 25.887407035056235 126.50290344235603 55.109583769249674
z" fill="none" stroke="none" style="animation-play-state:paused" ></path>


<circle cx="0" cy="0" r="5.979420088448825" fill="#51cacc" opacity="0.9" transform="translate(105.06156158447266 66.24295806884766)" style="opacity:0.9;animation-play-state:paused" ></circle>
<path id="path15" d="M 614.1689869202046 596.959092251998
c 0 37.51333059720426 -9.178793656762743 10.775105597069308 -19.95389925383205 10.775105597069308
S 574.2611884125406 634.4724228492022 574.2611884125406 596.959092251998
s 9.178793656762743 -10.775105597069308 19.95389925383205 -10.775105597069308
S 614.1689869202046 559.4457616547937 614.1689869202046 596.959092251998
z" fill="none" stroke="none" style="animation-play-state:paused" ></path>


<circle cx="0" cy="0" r="4.545085283336721" fill="#ff708e" opacity="0.9" transform="translate(614.1520385742188 594.2958984375)" style="opacity:0.9;animation-play-state:paused" ></circle>
<path id="path16" d="M 666.8121372749476 319.26118075647514
c 0 22.114079290857322 -5.410891741379983 6.351916392054763 -11.762808133434746 6.351916392054763
S 643.2865210080781 341.37526004733246 643.2865210080781 319.26118075647514
s 5.410891741379983 -6.351916392054763 11.762808133434746 -6.351916392054763
S 666.8121372749476 297.1471014656178 666.8121372749476 319.26118075647514
z" fill="none" stroke="none" style="animation-play-state:paused" ></path>


<circle cx="0" cy="0" r="4.057111792760959" fill="#ff708e" opacity="0.9" transform="translate(643.28662109375 319.3353576660156)" style="opacity:0.9;animation-play-state:paused" ></circle>
<path id="path17" d="M 1067.9513929373998 359.6642101641404
c 0 26.194493758811976 -6.409291026092291 7.523950334977908 -13.933241361070198 7.523950334977908
S 1040.0849102152592 385.8587039229524 1040.0849102152592 359.6642101641404
s 6.409291026092291 -7.523950334977908 13.933241361070198 -7.523950334977908
S 1067.9513929373998 333.4697164053284 1067.9513929373998 359.6642101641404
z" fill="none" stroke="none" style="animation-play-state:paused" ></path>


<circle cx="0" cy="0" r="5.818746417227092" fill="#ff708e" opacity="0.9" transform="translate(1049.7371826171875 368.87969970703125)" style="opacity:0.9;animation-play-state:paused" ></circle>
<path id="path18" d="M 230.70829719421587 377.47341126524736
c 0 24.89815917626124 -6.092102777170303 7.151598912330357 -13.24370168950066 7.151598912330357
S 204.22089381521457 402.3715704415086 204.22089381521457 377.47341126524736
s 6.092102777170303 -7.151598912330357 13.24370168950066 -7.151598912330357
S 230.70829719421587 352.57525208898613 230.70829719421587 377.47341126524736
z" fill="none" stroke="none" style="animation-play-state:paused" ></path>


<circle cx="0" cy="0" r="6.0995369895181755" fill="#9df871" opacity="0.9" transform="translate(230.705810546875 378.2797546386719)" style="opacity:0.9;animation-play-state:paused" ></circle>
<path id="path19" d="M 334.3832513775411 17.919564683118352
c 0 22.892080285102995 -5.601253686780519 6.57538476274235 -12.17663844952287 6.57538476274235
S 310.0299744784953 40.811644968221344 310.0299744784953 17.919564683118352
s 5.601253686780519 -6.57538476274235 12.17663844952287 -6.57538476274235
S 334.3832513775411 -4.972515601984643 334.3832513775411 17.919564683118352
z" fill="none" stroke="none" style="animation-play-state:paused" ></path>


<circle cx="0" cy="0" r="7.3948182632685295" fill="#de9dd6" opacity="0.9" transform="translate(326.1854248046875 26.145437240600586)" style="opacity:0.9;animation-play-state:paused" ></circle>
<path id="path20" d="M 497.58692573240535 326.32271311111
c 0 32.91936042062335 -8.054737124195073 9.455560971881175 -17.510298096076248 9.455560971881175
S 462.5663295402528 359.24207353173335 462.5663295402528 326.32271311111
s 8.054737124195073 -9.455560971881175 17.510298096076248 -9.455560971881175
S 497.58692573240535 293.4033526904866 497.58692573240535 326.32271311111
z" fill="none" stroke="none" style="animation-play-state:paused" ></path>


<circle cx="0" cy="0" r="4.789700831845851" fill="#e0ff77" opacity="0.9" transform="translate(496.4469909667969 311.7835693359375)" style="opacity:0.9;animation-play-state:paused" ></circle>
<path id="path21" d="M 806.7453364490539 285.1520328617013
c 0 31.813279803860546 -7.784100377540345 9.137856964938667 -16.92195734247901 9.137856964938667
S 772.9014217640959 316.96531266556184 772.9014217640959 285.1520328617013
s 7.784100377540345 -9.137856964938667 16.92195734247901 -9.137856964938667
S 806.7453364490539 253.33875305784073 806.7453364490539 285.1520328617013
z" fill="none" stroke="none" style="animation-play-state:paused" ></path>


<circle cx="0" cy="0" r="7.1549031879828435" fill="#e0ff77" opacity="0.9" transform="translate(773.0504760742188 278.47607421875)" style="opacity:0.9;animation-play-state:paused" ></circle>
<path id="path22" d="M 950.2289701558615 365.61934463146656
c 0 31.180246218638757 -7.62920918115629 8.956028169183472 -16.585237350339764 8.956028169183472
S 917.058495455182 396.79959085010535 917.058495455182 365.61934463146656
s 7.62920918115629 -8.956028169183472 16.585237350339764 -8.956028169183472
S 950.2289701558615 334.4390984128278 950.2289701558615 365.61934463146656
z" fill="none" stroke="none" style="animation-play-state:paused" ></path>


<circle cx="0" cy="0" r="7.88439314175287" fill="#e0ff77" opacity="0.9" transform="translate(922.0932006835938 349.5052185058594)" style="opacity:0.9;animation-play-state:paused" ></circle>
<path id="path23" d="M 318.5955980198897 382.0080459898291
c 0 29.27540497272286 -7.163131003964104 8.408892917696992 -15.572023921661096 8.408892917696992
S 287.45155017656754 411.28345096255197 287.45155017656754 382.0080459898291
s 7.163131003964104 -8.408892917696992 15.572023921661096 -8.408892917696992
S 318.5955980198897 352.73264101710623 318.5955980198897 382.0080459898291
z" fill="none" stroke="none" style="animation-play-state:paused" ></path>


<circle cx="0" cy="0" r="6.897796818613541" fill="#ff708e" opacity="0.9" transform="translate(318.3074951171875 390.3771057128906)" style="opacity:0.9;animation-play-state:paused" ></circle>
<path id="path24" d="M 646.4337940681667 634.5165270122895
c 0 25.743055115911996 -6.298832634744424 7.3942817886130205 -13.693114423357445 7.3942817886130205
S 619.0475652214518 660.2595821282015 619.0475652214518 634.5165270122895
s 6.298832634744424 -7.3942817886130205 13.693114423357445 -7.3942817886130205
S 646.4337940681667 608.7734718963776 646.4337940681667 634.5165270122895
z" fill="none" stroke="none" style="animation-play-state:paused" ></path>


<circle cx="0" cy="0" r="5.331826310484418" fill="#ff708e" opacity="0.9" transform="translate(622.8582153320312 648.0006103515625)" style="opacity:0.9;animation-play-state:paused" ></circle>
<path id="path25" d="M 1068.614241166447 586.0190975226726
c 0 20.411519781013737 -4.994308031524637 5.862883341355009 -10.857191372879647 5.862883341355009
S 1046.8998584206877 606.4306173036864 1046.8998584206877 586.0190975226726
s 4.994308031524637 -5.862883341355009 10.857191372879647 -5.862883341355009
S 1068.614241166447 565.6075777416588 1068.614241166447 586.0190975226726
z" fill="none" stroke="none" style="animation-play-state:paused" ></path>


<circle cx="0" cy="0" r="4.940744661109712" fill="#51cacc" opacity="0.9" transform="translate(1068.5518798828125 589.5657348632812)" style="opacity:0.9;animation-play-state:paused" ></circle>
<path id="path26" d="M 1002.1882365095753 164.20290345326111
c 0 32.20236808926606 -7.879302830352333 9.249616366065784 -17.128919196418117 9.249616366065784
S 967.9303981167391 196.40527154252717 967.9303981167391 164.20290345326111
s 7.879302830352333 -9.249616366065784 17.128919196418117 -9.249616366065784
S 1002.1882365095753 132.00053536399506 1002.1882365095753 164.20290345326111
z" fill="none" stroke="none" style="animation-play-state:paused" ></path>


<circle cx="0" cy="0" r="5.3961136017021785" fill="#ff708e" opacity="0.9" transform="translate(979.3843383789062 152.5733642578125)" style="opacity:0.9;animation-play-state:paused" ></circle>
<path id="path27" d="M 655.8820966931721 198.6477822967974
c 0 20.054529325550277 -4.906959303060174 5.760343529679336 -10.667302832739509 5.760343529679336
S 634.547491027693 218.70231162234768 634.547491027693 198.6477822967974
s 4.906959303060174 -5.760343529679336 10.667302832739509 -5.760343529679336
S 655.8820966931721 178.59325297124713 655.8820966931721 198.6477822967974
z" fill="none" stroke="none" style="animation-play-state:paused" ></path>


<circle cx="0" cy="0" r="4.177924340627549" fill="#9df871" opacity="0.9" transform="translate(635.4778442382812 208.19482421875)" style="opacity:0.9;animation-play-state:paused" ></circle>
<path id="path28" d="M 353.94993199800916 496.4079678528322
c 0 20.430867734489663 -4.9990421052474705 5.8684407322470316 -10.867482837494503 5.8684407322470316
S 332.2149663230202 516.8388355873219 332.2149663230202 496.4079678528322
s 4.9990421052474705 -5.8684407322470316 10.867482837494503 -5.8684407322470316
S 353.94993199800916 475.97710011834255 353.94993199800916 496.4079678528322
z" fill="none" stroke="none" style="animation-play-state:paused" ></path>


<circle cx="0" cy="0" r="4.002223454753592" fill="#de9dd6" opacity="0.9" transform="translate(332.29962158203125 492.3426818847656)" style="opacity:0.9;animation-play-state:paused" ></circle>
<path id="path29" d="M 1276.314952158048 646.312834229631
c 0 29.9851271805266 -7.336786437788422 8.612749296534236 -15.949535734322659 8.612749296534236
S 1244.415880689403 676.2979614101575 1244.415880689403 646.312834229631
s 7.336786437788422 -8.612749296534236 15.949535734322659 -8.612749296534236
S 1276.314952158048 616.3277070491044 1276.314952158048 646.312834229631
z" fill="none" stroke="none" style="animation-play-state:paused" ></path>


<circle cx="0" cy="0" r="5.226023490128086" fill="#51cacc" opacity="0.9" transform="translate(1266.103759765625 635.1370849609375)" style="opacity:0.9;animation-play-state:paused" ></circle>
<path id="path30" d="M 442.82161913686156 409.438740388347
c 0 32.39322937865875 -7.926002933076076 9.30443822578496 -17.230441158861037 9.30443822578496
S 408.3607368191395 441.8319697670058 408.3607368191395 409.438740388347
s 7.926002933076076 -9.30443822578496 17.230441158861037 -9.30443822578496
S 442.82161913686156 377.04551100968825 442.82161913686156 409.438740388347
z" fill="none" stroke="none" style="animation-play-state:paused" ></path>


<circle cx="0" cy="0" r="5.183174984993463" fill="#51cacc" opacity="0.9" transform="translate(426.20770263671875 418.7765808105469)" style="opacity:0.9;animation-play-state:paused" ></circle>
<path id="path31" d="M 560.5785211317722 129.80790052969837
c 0 35.119572629769436 -8.593086920049968 10.087536819189094 -18.68062373923906 10.087536819189094
S 523.217273653294 164.9274731594678 523.217273653294 129.80790052969837
s 8.593086920049968 -10.087536819189094 18.68062373923906 -10.087536819189094
S 560.5785211317722 94.68832789992894 560.5785211317722 129.80790052969837
z" fill="none" stroke="none" style="animation-play-state:paused" ></path>


<circle cx="0" cy="0" r="4.330895685264799" fill="#9df871" opacity="0.9" transform="translate(523.2488403320312 133.27005004882812)" style="opacity:0.9;animation-play-state:paused" ></circle>
<path id="path32" d="M 1211.5904911733892 195.61802365223022
c 0 27.3310372356343 -6.6873814512722225 7.850404312363045 -14.537785763635267 7.850404312363045
S 1182.5149196461189 222.94906088786453 1182.5149196461189 195.61802365223022
s 6.6873814512722225 -7.850404312363045 14.537785763635267 -7.850404312363045
S 1211.5904911733892 168.2869864165959 1211.5904911733892 195.61802365223022
z" fill="none" stroke="none" style="animation-play-state:paused" ></path>


<circle cx="0" cy="0" r="7.670872408023187" fill="#ff708e" opacity="0.9" transform="translate(1208.219970703125 210.16244506835938)" style="opacity:0.9;animation-play-state:paused" ></circle>
<path id="path33" d="M 148.23012984957762 614.4631244003803
c 0 34.31351908132089 -8.395861051812558 9.856010799953873 -18.25187185176643 9.856010799953873
S 111.72638614604477 648.7766434817012 111.72638614604477 614.4631244003803
s 8.395861051812558 -9.856010799953873 18.25187185176643 -9.856010799953873
S 148.23012984957762 580.1496053190593 148.23012984957762 614.4631244003803
z" fill="none" stroke="none" style="animation-play-state:paused" ></path>


<circle cx="0" cy="0" r="6.295662001938269" fill="#e0ff77" opacity="0.9" transform="translate(111.76061248779297 618.0222778320312)" style="opacity:0.9;animation-play-state:paused" ></circle>
<path id="path34" d="M 457.1047320151115 214.2734176039535
c 0 26.053466987539448 -6.374784475674545 7.4834426453570755 -13.858227121031621 7.4834426453570755
S 429.38827777304823 240.32688459149296 429.38827777304823 214.2734176039535
s 6.374784475674545 -7.4834426453570755 13.858227121031621 -7.4834426453570755
S 457.1047320151115 188.21995061641405 457.1047320151115 214.2734176039535
z" fill="none" stroke="none" style="animation-play-state:paused" ></path>


<circle cx="0" cy="0" r="4.530353804227128" fill="#51cacc" opacity="0.9" transform="translate(448.72015380859375 224.37440490722656)" style="opacity:0.9;animation-play-state:paused" ></circle></g></svg>